<mxfile host="app.diagrams.net" modified="2022-04-20T05:42:31.282Z" agent="5.0 (Macintosh; Intel Mac OS X 10_15_7) AppleWebKit/537.36 (KHTML, like Gecko) Chrome/100.0.4896.88 Safari/537.36" etag="mrDR3jb5sO5KssxEXwrN" version="17.4.5" type="github">
  <diagram id="bvIZSV0BEsaS7vTOhTCr" name="Page-1">
    <mxGraphModel dx="1072" dy="557" grid="1" gridSize="10" guides="1" tooltips="1" connect="1" arrows="1" fold="1" page="1" pageScale="1" pageWidth="827" pageHeight="1169" math="0" shadow="0">
      <root>
        <mxCell id="0" />
        <mxCell id="1" parent="0" />
        <mxCell id="nbNWqruepu-V-vgZKyh7-1" value="课题" style="ellipse;whiteSpace=wrap;html=1;align=center;newEdgeStyle={&quot;edgeStyle&quot;:&quot;entityRelationEdgeStyle&quot;,&quot;startArrow&quot;:&quot;none&quot;,&quot;endArrow&quot;:&quot;none&quot;,&quot;segment&quot;:10,&quot;curved&quot;:1};treeFolding=1;treeMoving=1;" vertex="1" parent="1">
          <mxGeometry x="70" y="380" width="100" height="40" as="geometry" />
        </mxCell>
        <mxCell id="nbNWqruepu-V-vgZKyh7-4" value="Taro多端自动化生成骨架屏" style="whiteSpace=wrap;html=1;shape=partialRectangle;top=0;left=0;bottom=1;right=0;points=[[0,1],[1,1]];fillColor=none;align=center;verticalAlign=bottom;routingCenterY=0.5;snapToPoint=1;recursiveResize=0;autosize=1;treeFolding=1;treeMoving=1;newEdgeStyle={&quot;edgeStyle&quot;:&quot;entityRelationEdgeStyle&quot;,&quot;startArrow&quot;:&quot;none&quot;,&quot;endArrow&quot;:&quot;none&quot;,&quot;segment&quot;:10,&quot;curved&quot;:1};" vertex="1" parent="1">
          <mxGeometry x="265" y="460" width="180" height="20" as="geometry" />
        </mxCell>
        <mxCell id="nbNWqruepu-V-vgZKyh7-5" value="" style="edgeStyle=entityRelationEdgeStyle;startArrow=none;endArrow=none;segment=10;curved=1;rounded=0;exitX=1;exitY=0.5;exitDx=0;exitDy=0;" edge="1" target="nbNWqruepu-V-vgZKyh7-4" parent="1" source="nbNWqruepu-V-vgZKyh7-1">
          <mxGeometry relative="1" as="geometry">
            <mxPoint x="220" y="470" as="sourcePoint" />
          </mxGeometry>
        </mxCell>
        <mxCell id="nbNWqruepu-V-vgZKyh7-9" value="h5" style="whiteSpace=wrap;html=1;shape=partialRectangle;top=0;left=0;bottom=1;right=0;points=[[0,1],[1,1]];fillColor=none;align=center;verticalAlign=bottom;routingCenterY=0.5;snapToPoint=1;recursiveResize=0;autosize=1;treeFolding=1;treeMoving=1;newEdgeStyle={&quot;edgeStyle&quot;:&quot;entityRelationEdgeStyle&quot;,&quot;startArrow&quot;:&quot;none&quot;,&quot;endArrow&quot;:&quot;none&quot;,&quot;segment&quot;:10,&quot;curved&quot;:1};" vertex="1" parent="1">
          <mxGeometry x="470" y="390" width="50" height="20" as="geometry" />
        </mxCell>
        <mxCell id="nbNWqruepu-V-vgZKyh7-10" value="" style="edgeStyle=entityRelationEdgeStyle;startArrow=none;endArrow=none;segment=10;curved=1;rounded=0;exitX=1;exitY=1;exitDx=0;exitDy=0;" edge="1" target="nbNWqruepu-V-vgZKyh7-9" parent="1" source="nbNWqruepu-V-vgZKyh7-4">
          <mxGeometry relative="1" as="geometry">
            <mxPoint x="400" y="470" as="sourcePoint" />
          </mxGeometry>
        </mxCell>
        <mxCell id="nbNWqruepu-V-vgZKyh7-11" value="weapp" style="whiteSpace=wrap;html=1;shape=partialRectangle;top=0;left=0;bottom=1;right=0;points=[[0,1],[1,1]];fillColor=none;align=center;verticalAlign=bottom;routingCenterY=0.5;snapToPoint=1;recursiveResize=0;autosize=1;treeFolding=1;treeMoving=1;newEdgeStyle={&quot;edgeStyle&quot;:&quot;entityRelationEdgeStyle&quot;,&quot;startArrow&quot;:&quot;none&quot;,&quot;endArrow&quot;:&quot;none&quot;,&quot;segment&quot;:10,&quot;curved&quot;:1};" vertex="1" parent="1">
          <mxGeometry x="470" y="520" width="70" height="20" as="geometry" />
        </mxCell>
        <mxCell id="nbNWqruepu-V-vgZKyh7-12" value="" style="edgeStyle=entityRelationEdgeStyle;startArrow=none;endArrow=none;segment=10;curved=1;rounded=0;exitX=1;exitY=1;exitDx=0;exitDy=0;" edge="1" target="nbNWqruepu-V-vgZKyh7-11" parent="1" source="nbNWqruepu-V-vgZKyh7-4">
          <mxGeometry relative="1" as="geometry">
            <mxPoint x="400" y="540" as="sourcePoint" />
          </mxGeometry>
        </mxCell>
        <mxCell id="nbNWqruepu-V-vgZKyh7-13" value="多页" style="whiteSpace=wrap;html=1;shape=partialRectangle;top=0;left=0;bottom=1;right=0;points=[[0,1],[1,1]];fillColor=none;align=center;verticalAlign=bottom;routingCenterY=0.5;snapToPoint=1;recursiveResize=0;autosize=1;treeFolding=1;treeMoving=1;newEdgeStyle={&quot;edgeStyle&quot;:&quot;entityRelationEdgeStyle&quot;,&quot;startArrow&quot;:&quot;none&quot;,&quot;endArrow&quot;:&quot;none&quot;,&quot;segment&quot;:10,&quot;curved&quot;:1};" vertex="1" parent="1">
          <mxGeometry x="585" y="350" width="60" height="20" as="geometry" />
        </mxCell>
        <mxCell id="nbNWqruepu-V-vgZKyh7-14" value="" style="edgeStyle=entityRelationEdgeStyle;startArrow=none;endArrow=none;segment=10;curved=1;rounded=0;exitX=1;exitY=1;exitDx=0;exitDy=0;" edge="1" target="nbNWqruepu-V-vgZKyh7-13" parent="1" source="nbNWqruepu-V-vgZKyh7-9">
          <mxGeometry relative="1" as="geometry">
            <mxPoint x="620" y="370" as="sourcePoint" />
          </mxGeometry>
        </mxCell>
        <mxCell id="nbNWqruepu-V-vgZKyh7-17" value="Taro多端AB Test" style="whiteSpace=wrap;html=1;shape=partialRectangle;top=0;left=0;bottom=1;right=0;points=[[0,1],[1,1]];fillColor=none;align=center;verticalAlign=bottom;routingCenterY=0.5;snapToPoint=1;recursiveResize=0;autosize=1;treeFolding=1;treeMoving=1;newEdgeStyle={&quot;edgeStyle&quot;:&quot;entityRelationEdgeStyle&quot;,&quot;startArrow&quot;:&quot;none&quot;,&quot;endArrow&quot;:&quot;none&quot;,&quot;segment&quot;:10,&quot;curved&quot;:1};" vertex="1" parent="1">
          <mxGeometry x="265" y="260" width="120" height="20" as="geometry" />
        </mxCell>
        <mxCell id="nbNWqruepu-V-vgZKyh7-18" value="" style="edgeStyle=entityRelationEdgeStyle;startArrow=none;endArrow=none;segment=10;curved=1;rounded=0;exitX=1;exitY=0.5;exitDx=0;exitDy=0;" edge="1" target="nbNWqruepu-V-vgZKyh7-17" parent="1" source="nbNWqruepu-V-vgZKyh7-1">
          <mxGeometry relative="1" as="geometry">
            <mxPoint x="310" y="390" as="sourcePoint" />
          </mxGeometry>
        </mxCell>
        <mxCell id="nbNWqruepu-V-vgZKyh7-19" value="页面" style="whiteSpace=wrap;html=1;shape=partialRectangle;top=0;left=0;bottom=1;right=0;points=[[0,1],[1,1]];fillColor=none;align=center;verticalAlign=bottom;routingCenterY=0.5;snapToPoint=1;recursiveResize=0;autosize=1;treeFolding=1;treeMoving=1;newEdgeStyle={&quot;edgeStyle&quot;:&quot;entityRelationEdgeStyle&quot;,&quot;startArrow&quot;:&quot;none&quot;,&quot;endArrow&quot;:&quot;none&quot;,&quot;segment&quot;:10,&quot;curved&quot;:1};" vertex="1" parent="1">
          <mxGeometry x="445" y="200" width="60" height="20" as="geometry" />
        </mxCell>
        <mxCell id="nbNWqruepu-V-vgZKyh7-20" value="" style="edgeStyle=entityRelationEdgeStyle;startArrow=none;endArrow=none;segment=10;curved=1;rounded=0;exitX=1;exitY=1;exitDx=0;exitDy=0;" edge="1" target="nbNWqruepu-V-vgZKyh7-19" parent="1" source="nbNWqruepu-V-vgZKyh7-17">
          <mxGeometry relative="1" as="geometry">
            <mxPoint x="490" y="360" as="sourcePoint" />
          </mxGeometry>
        </mxCell>
        <mxCell id="nbNWqruepu-V-vgZKyh7-21" value="组件" style="whiteSpace=wrap;html=1;shape=partialRectangle;top=0;left=0;bottom=1;right=0;points=[[0,1],[1,1]];fillColor=none;align=center;verticalAlign=bottom;routingCenterY=0.5;snapToPoint=1;recursiveResize=0;autosize=1;treeFolding=1;treeMoving=1;newEdgeStyle={&quot;edgeStyle&quot;:&quot;entityRelationEdgeStyle&quot;,&quot;startArrow&quot;:&quot;none&quot;,&quot;endArrow&quot;:&quot;none&quot;,&quot;segment&quot;:10,&quot;curved&quot;:1};" vertex="1" parent="1">
          <mxGeometry x="450" y="300" width="60" height="20" as="geometry" />
        </mxCell>
        <mxCell id="nbNWqruepu-V-vgZKyh7-22" value="" style="edgeStyle=entityRelationEdgeStyle;startArrow=none;endArrow=none;segment=10;curved=1;rounded=0;exitX=1;exitY=1;exitDx=0;exitDy=0;" edge="1" target="nbNWqruepu-V-vgZKyh7-21" parent="1" source="nbNWqruepu-V-vgZKyh7-17">
          <mxGeometry relative="1" as="geometry">
            <mxPoint x="495" y="400" as="sourcePoint" />
          </mxGeometry>
        </mxCell>
        <mxCell id="nbNWqruepu-V-vgZKyh7-23" value="大单页" style="whiteSpace=wrap;html=1;shape=partialRectangle;top=0;left=0;bottom=1;right=0;points=[[0,1],[1,1]];fillColor=none;align=center;verticalAlign=bottom;routingCenterY=0.5;snapToPoint=1;recursiveResize=0;autosize=1;treeFolding=1;treeMoving=1;newEdgeStyle={&quot;edgeStyle&quot;:&quot;entityRelationEdgeStyle&quot;,&quot;startArrow&quot;:&quot;none&quot;,&quot;endArrow&quot;:&quot;none&quot;,&quot;segment&quot;:10,&quot;curved&quot;:1};" vertex="1" parent="1">
          <mxGeometry x="585" y="440" width="70" height="20" as="geometry" />
        </mxCell>
        <mxCell id="nbNWqruepu-V-vgZKyh7-24" value="" style="edgeStyle=entityRelationEdgeStyle;startArrow=none;endArrow=none;segment=10;curved=1;rounded=0;exitX=1;exitY=1;exitDx=0;exitDy=0;" edge="1" target="nbNWqruepu-V-vgZKyh7-23" parent="1" source="nbNWqruepu-V-vgZKyh7-9">
          <mxGeometry relative="1" as="geometry">
            <mxPoint x="620" y="470" as="sourcePoint" />
          </mxGeometry>
        </mxCell>
      </root>
    </mxGraphModel>
  </diagram>
</mxfile>
